<svg width="403" height="100" viewBox="0 0 403 100" fill="none" xmlns="http://www.w3.org/2000/svg">
<path d="M36.5311 0L38.2195 1.20235L4.34894 25.0704V74.1366H72.9087V77.9739H0V25.6587L36.5311 0Z" fill="black"/>
<path d="M46.815 0.972137H72.9086V26.5541H57.099L46.815 38.9102V0.972137Z" fill="#F7A814"/>
<path d="M100.051 65.9498H108.263V76.3105C105.244 77.6152 102.277 78.2804 99.3093 78.2804C95.2673 78.2804 92.044 77.1036 89.6137 74.75C87.1834 72.3965 85.9811 69.4801 85.9811 66.0266C85.9811 62.3684 87.2346 59.3497 89.7416 56.9194C92.2487 54.4891 95.3953 53.2867 99.1558 53.2867C100.537 53.2867 101.842 53.4402 103.07 53.7216C104.298 54.0286 105.858 54.5658 107.751 55.3589V58.9148C104.835 57.2264 101.944 56.3822 99.0791 56.3822C96.4185 56.3822 94.1673 57.3031 92.3254 59.1194C90.4835 60.9358 89.5881 63.1614 89.5881 65.8219C89.5881 68.5848 90.5091 70.8616 92.3254 72.6267C94.1673 74.3919 96.5209 75.2617 99.386 75.2617C100.793 75.2617 102.456 74.9291 104.4 74.2896L104.733 74.1872V69.0708H100.026V65.9498H100.051Z" fill="black"/>
<path d="M113.354 53.5687H127.194V56.6897H116.833V64.134H126.835V67.255H116.833V74.8529H127.526V77.9739H113.354V53.5687Z" fill="black"/>
<path d="M150.678 53.5687H154.004V77.9995H150.985L134.664 59.1967V77.9995H131.364V53.5687H134.203L150.678 72.5505V53.5687Z" fill="black"/>
<path d="M159.222 53.5687H173.062V56.6897H162.701V64.134H172.704V67.255H162.701V74.8529H173.395V77.9739H159.222V53.5687Z" fill="black"/>
<path d="M177.232 77.9995V53.5687H183.346C185.828 53.5687 187.772 54.1826 189.23 55.4106C190.688 56.6385 191.404 58.3013 191.404 60.3735C191.404 61.8061 191.046 63.034 190.33 64.0573C189.614 65.1061 188.59 65.8736 187.26 66.3853C188.053 66.8969 188.795 67.5876 189.563 68.483C190.304 69.3783 191.353 70.9133 192.709 73.1133C193.553 74.4947 194.244 75.5436 194.756 76.2343L196.06 77.9739H191.89L190.816 76.3622C190.79 76.3111 190.714 76.2087 190.611 76.0552L189.921 75.0831L188.846 73.2924L187.669 71.3737C186.953 70.376 186.288 69.583 185.674 68.969C185.06 68.3806 184.523 67.9458 184.037 67.6899C183.551 67.4341 182.732 67.3062 181.607 67.3062H180.686V77.9483H177.232V77.9995ZM181.786 56.5362H180.737V64.2364H182.067C183.832 64.2364 185.06 64.0829 185.725 63.7759C186.39 63.4689 186.902 63.0084 187.26 62.3945C187.618 61.7805 187.823 61.0898 187.823 60.2967C187.823 59.5293 187.618 58.8386 187.209 58.199C186.8 57.585 186.237 57.1246 185.495 56.8687C184.728 56.6641 183.5 56.5362 181.786 56.5362Z" fill="black"/>
<path d="M206.575 53.4152H209.03L219.98 77.9739H216.398L213.149 70.7342H202.737L199.693 77.9739H196.112L206.575 53.4152ZM211.691 67.6388L207.751 58.7874L204.093 67.6388H211.691Z" fill="black"/>
<path d="M216.986 53.5175H237.401V56.6385H228.882V77.9995H225.377V56.6385H217.012V53.5175H216.986Z" fill="black"/>
<path d="M240.727 53.5687H244.231V77.9995H240.727V53.5687Z" fill="black"/>
<path d="M261.653 53.2105C265.439 53.2105 268.56 54.4129 271.092 56.792C273.599 59.1711 274.853 62.1898 274.853 65.7713C274.853 69.3783 273.574 72.3459 271.041 74.725C268.509 77.0785 265.311 78.2553 261.448 78.2553C257.764 78.2553 254.694 77.0785 252.239 74.725C249.783 72.3714 248.555 69.4039 248.555 65.848C248.555 62.1898 249.783 59.1711 252.264 56.792C254.746 54.4129 257.867 53.2105 261.653 53.2105ZM261.781 56.5362C258.992 56.5362 256.69 57.406 254.899 59.1711C253.108 60.9107 252.187 63.1619 252.187 65.8736C252.187 68.5086 253.083 70.7086 254.899 72.4482C256.715 74.1878 258.967 75.0831 261.678 75.0831C264.416 75.0831 266.667 74.1878 268.509 72.397C270.325 70.6063 271.246 68.3806 271.246 65.7457C271.246 63.1619 270.325 60.9875 268.509 59.2223C266.667 57.4316 264.441 56.5362 261.781 56.5362Z" fill="black"/>
<path d="M298.542 53.5687H301.868V77.9995H298.849L282.528 59.1967V77.9995H279.228V53.5687H282.067L298.542 72.5505V53.5687Z" fill="black"/>
<path d="M317.166 77.9995V53.5687H323.28C325.761 53.5687 327.705 54.1826 329.163 55.4106C330.622 56.6385 331.338 58.3013 331.338 60.3735C331.338 61.8061 330.98 63.034 330.264 64.0573C329.547 65.1061 328.524 65.8736 327.194 66.3853C327.987 66.8969 328.729 67.5876 329.496 68.483C330.238 69.3783 331.287 70.9133 332.643 73.1133C333.487 74.4947 334.178 75.5436 334.689 76.2343L335.994 77.9739H331.824L330.75 76.3622C330.724 76.3111 330.647 76.2087 330.545 76.0552L329.854 75.0831L328.78 73.2924L327.603 71.3737C326.887 70.376 326.222 69.583 325.608 68.969C325.019 68.3806 324.456 67.9458 323.97 67.6899C323.484 67.4341 322.666 67.3062 321.54 67.3062H320.619V77.9483H317.166V77.9995ZM321.694 56.5362H320.645V64.2364H321.975C323.74 64.2364 324.968 64.0829 325.633 63.7759C326.298 63.4689 326.81 63.0084 327.168 62.3945C327.526 61.7805 327.731 61.0898 327.731 60.2967C327.731 59.5293 327.526 58.8386 327.117 58.199C326.708 57.585 326.145 57.1246 325.403 56.8687C324.635 56.6641 323.408 56.5362 321.694 56.5362Z" fill="black"/>
<path d="M338.68 53.5687H352.52V56.6897H342.159V64.134H352.162V67.255H342.159V74.8529H352.852V77.9739H338.68V53.5687Z" fill="black"/>
<path d="M376.004 53.5687H379.33V77.9995H376.311L359.99 59.1967V77.9995H356.69V53.5687H359.529L376.004 72.5505V53.5687Z" fill="black"/>
<path d="M382.476 53.5175H402.891V56.6385H394.372V77.9995H390.867V56.6385H382.502V53.5175H382.476Z" fill="black"/>
<path d="M84.4717 83.6522H94.679V85.2127H90.4323V95.8804H88.6672V85.2127H84.4717V83.6522Z" fill="#F7A814"/>
<path d="M96.086 83.6787H97.6721V88.8974C98.3372 88.0788 99.1558 87.6695 100.154 87.6695C100.691 87.6695 101.177 87.7974 101.586 88.0788C102.021 88.3346 102.328 88.7184 102.533 89.1788C102.737 89.6393 102.84 90.3556 102.84 91.2766V95.8557H101.254V90.8928C101.254 90.3044 101.1 89.8184 100.819 89.4602C100.537 89.1021 100.154 88.923 99.6675 88.923C99.3093 88.923 98.9768 89.0253 98.6698 89.2044C98.3628 89.3835 98.0302 89.6905 97.6465 90.0998V95.8557H96.0604V83.6787H96.086Z" fill="#F7A814"/>
<path d="M111.921 92.0184H106.268C106.319 92.7859 106.575 93.3999 107.035 93.8603C107.521 94.3208 108.135 94.551 108.877 94.551C109.926 94.551 110.898 94.2185 111.768 93.5789V95.1394C111.282 95.472 110.796 95.7022 110.31 95.8301C109.824 95.9581 109.261 96.0348 108.621 96.0348C107.726 96.0348 107.009 95.8557 106.472 95.472C105.935 95.1139 105.475 94.6022 105.168 93.9882C104.835 93.3743 104.682 92.658 104.682 91.8394C104.682 90.6114 105.04 89.6137 105.73 88.8463C106.421 88.0788 107.316 87.6951 108.442 87.6951C109.517 87.6951 110.361 88.0788 111 88.8207C111.64 89.5626 111.947 90.5603 111.947 91.8138V92.0184H111.921ZM106.293 91.0463H110.335C110.284 90.4068 110.105 89.9207 109.772 89.5881C109.44 89.2556 108.979 89.0765 108.416 89.0765C107.854 89.0765 107.368 89.2556 107.009 89.5881C106.651 89.9207 106.396 90.4068 106.293 91.0463Z" fill="#F7A814"/>
<path d="M120.21 87.8486V88.8718C120.926 88.0788 121.719 87.6951 122.64 87.6951C123.152 87.6951 123.612 87.823 124.047 88.0788C124.482 88.3346 124.815 88.6928 125.019 89.1532C125.249 89.6137 125.352 90.33 125.352 91.3021V95.9069H123.766V91.3277C123.766 90.5091 123.638 89.9207 123.382 89.5626C123.126 89.2044 122.717 89.0253 122.128 89.0253C121.387 89.0253 120.747 89.4091 120.21 90.1509V95.9069H118.573V87.8741H120.21V87.8486Z" fill="#F7A814"/>
<path d="M132.617 91.0463V94.4743C132.617 94.7557 132.719 94.8836 132.898 94.8836C133.103 94.8836 133.385 94.7301 133.794 94.4487V95.4208C133.436 95.6511 133.154 95.8046 132.924 95.9069C132.694 95.9836 132.489 96.0348 132.233 96.0348C131.543 96.0348 131.159 95.779 131.031 95.2418C130.366 95.779 129.624 96.0348 128.882 96.0348C128.319 96.0348 127.859 95.8557 127.475 95.472C127.091 95.1139 126.912 94.6278 126.912 94.065C126.912 93.5534 127.091 93.0929 127.449 92.7091C127.808 92.2998 128.319 91.9928 129.01 91.7626L131.057 91.0719V90.637C131.057 89.6649 130.57 89.1788 129.598 89.1788C128.729 89.1788 127.884 89.6393 127.066 90.5347V88.7695C127.68 88.0532 128.575 87.6695 129.726 87.6695C130.596 87.6695 131.287 87.8997 131.824 88.3602C132.003 88.5137 132.157 88.6928 132.284 88.9486C132.412 89.1788 132.515 89.4346 132.54 89.6649C132.617 89.9207 132.617 90.3812 132.617 91.0463ZM131.057 94.2952V91.9161L129.982 92.3254C129.445 92.5301 129.061 92.7603 128.831 92.965C128.601 93.1952 128.498 93.451 128.498 93.7836C128.498 94.1162 128.601 94.3975 128.805 94.6022C129.01 94.8069 129.291 94.9092 129.624 94.9092C130.161 94.9092 130.622 94.7045 131.057 94.2952Z" fill="#F7A814"/>
<path d="M134.075 89.1276L137.068 86.1857V87.8485H139.601V89.2811H137.068V93.2208C137.068 94.1417 137.452 94.6022 138.219 94.6022C138.782 94.6022 139.396 94.4231 140.036 94.0394V95.5231C139.422 95.8557 138.757 96.0348 138.04 96.0348C137.324 96.0348 136.71 95.8301 136.224 95.3952C136.071 95.2673 135.943 95.1138 135.84 94.9603C135.738 94.8068 135.661 94.6022 135.585 94.3208C135.508 94.065 135.482 93.5789 135.482 92.837V89.2811H134.075V89.1276Z" fill="#F7A814"/>
<path d="M142.006 84.4717C142.261 84.4717 142.492 84.5741 142.671 84.7531C142.85 84.9322 142.952 85.1624 142.952 85.4183C142.952 85.6741 142.85 85.9043 142.671 86.0834C142.492 86.2625 142.261 86.3648 142.006 86.3648C141.75 86.3648 141.545 86.2625 141.366 86.0834C141.187 85.9043 141.085 85.6741 141.085 85.4183C141.085 85.1624 141.187 84.9578 141.366 84.7787C141.545 84.5485 141.75 84.4717 142.006 84.4717ZM141.213 87.8486H142.799V95.8813H141.213V87.8486Z" fill="#F7A814"/>
<path d="M148.938 87.823C150.166 87.823 151.19 88.2067 151.983 88.9997C152.801 89.7928 153.211 90.7905 153.211 91.9673C153.211 93.1184 152.801 94.0906 151.983 94.858C151.164 95.6255 150.115 96.0092 148.887 96.0092C147.685 96.0092 146.662 95.6255 145.868 94.8324C145.05 94.065 144.641 93.0929 144.641 91.9161C144.641 90.7393 145.05 89.7672 145.868 88.9742C146.687 88.2067 147.71 87.823 148.938 87.823ZM148.862 89.2556C148.094 89.2556 147.48 89.5114 146.994 89.9974C146.508 90.5091 146.252 91.1486 146.252 91.9161C146.252 92.6835 146.508 93.3231 146.994 93.8092C147.506 94.2952 148.145 94.551 148.938 94.551C149.731 94.551 150.371 94.2952 150.857 93.8092C151.343 93.3231 151.599 92.6835 151.599 91.9161C151.599 91.1486 151.343 90.5091 150.831 90.023C150.294 89.5114 149.655 89.2556 148.862 89.2556Z" fill="#F7A814"/>
<path d="M156.562 87.8486V88.8718C157.278 88.0788 158.071 87.6951 158.992 87.6951C159.504 87.6951 159.964 87.823 160.399 88.0788C160.834 88.3346 161.167 88.6928 161.371 89.1532C161.601 89.6137 161.704 90.33 161.704 91.3021V95.9069H160.118V91.3277C160.118 90.5091 159.99 89.9207 159.734 89.5626C159.478 89.2044 159.069 89.0253 158.48 89.0253C157.739 89.0253 157.099 89.4091 156.562 90.1509V95.9069H154.924V87.8741H156.562V87.8486Z" fill="#F7A814"/>
<path d="M168.995 91.0463V94.4743C168.995 94.7557 169.097 94.8836 169.276 94.8836C169.481 94.8836 169.762 94.7301 170.171 94.4487V95.4208C169.813 95.6511 169.532 95.8046 169.302 95.9069C169.071 95.9836 168.867 96.0348 168.611 96.0348C167.92 96.0348 167.536 95.779 167.409 95.2418C166.743 95.779 166.002 96.0348 165.26 96.0348C164.697 96.0348 164.236 95.8557 163.853 95.472C163.469 95.1139 163.29 94.6278 163.29 94.065C163.29 93.5534 163.469 93.0929 163.827 92.7091C164.185 92.2998 164.697 91.9928 165.388 91.7626L167.434 91.0719V90.637C167.434 89.6649 166.948 89.1788 165.976 89.1788C165.106 89.1788 164.262 89.6393 163.443 90.5347V88.7695C164.057 88.0532 164.953 87.6695 166.104 87.6695C166.974 87.6695 167.664 87.8997 168.202 88.3602C168.381 88.5137 168.534 88.6928 168.662 88.9486C168.79 89.2044 168.892 89.4346 168.918 89.6649C168.969 89.9207 168.995 90.3812 168.995 91.0463ZM167.434 94.2952V91.9161L166.36 92.3254C165.822 92.5301 165.439 92.7603 165.209 92.965C164.978 93.1952 164.876 93.451 164.876 93.7836C164.876 94.1162 164.978 94.3975 165.183 94.6022C165.388 94.8069 165.669 94.9092 166.002 94.9092C166.513 94.9092 166.999 94.7045 167.434 94.2952Z" fill="#F7A814"/>
<path d="M171.604 83.6787H173.19V95.8813H171.604V83.6787Z" fill="#F7A814"/>
<path d="M185.418 87.8485H187.132L183.576 96.0347H183.039L179.406 87.8485H181.146L183.321 92.7858L185.418 87.8485Z" fill="#F7A814"/>
<path d="M191.814 87.823C193.042 87.823 194.065 88.2067 194.858 88.9997C195.677 89.7928 196.086 90.7905 196.086 91.9673C196.086 93.1184 195.677 94.0906 194.858 94.858C194.039 95.6255 192.991 96.0092 191.763 96.0092C190.56 96.0092 189.537 95.6255 188.744 94.8324C187.925 94.065 187.516 93.0929 187.516 91.9161C187.516 90.7393 187.925 89.7672 188.744 88.9742C189.537 88.2067 190.586 87.823 191.814 87.823ZM191.711 89.2556C190.944 89.2556 190.33 89.5114 189.844 89.9974C189.358 90.5091 189.102 91.1486 189.102 91.9161C189.102 92.6835 189.358 93.3231 189.844 93.8092C190.356 94.2952 190.995 94.551 191.788 94.551C192.581 94.551 193.221 94.2952 193.707 93.8092C194.193 93.3231 194.449 92.6835 194.449 91.9161C194.449 91.1486 194.193 90.5091 193.681 90.023C193.17 89.5114 192.504 89.2556 191.711 89.2556Z" fill="#F7A814"/>
<path d="M198.67 84.4717C198.926 84.4717 199.156 84.5741 199.335 84.7531C199.514 84.9322 199.616 85.1624 199.616 85.4183C199.616 85.6741 199.514 85.9043 199.335 86.0834C199.156 86.2625 198.926 86.3648 198.67 86.3648C198.414 86.3648 198.209 86.2625 198.03 86.0834C197.851 85.9043 197.749 85.6741 197.749 85.4183C197.749 85.1624 197.851 84.9578 198.03 84.7787C198.209 84.5485 198.414 84.4717 198.67 84.4717ZM197.877 87.8486H199.463V95.8813H197.877V87.8486Z" fill="#F7A814"/>
<path d="M207.803 94.0138V95.5999C207.009 95.9069 206.216 96.0348 205.449 96.0348C204.195 96.0348 203.198 95.6511 202.43 94.9092C201.688 94.1673 201.305 93.1696 201.305 91.9161C201.305 90.6626 201.663 89.6393 202.405 88.8463C203.121 88.0788 204.093 87.6951 205.27 87.6951C205.679 87.6951 206.063 87.7462 206.396 87.823C206.728 87.8997 207.137 88.0532 207.623 88.2579V89.9463C206.83 89.4346 206.063 89.1788 205.372 89.1788C204.656 89.1788 204.068 89.4346 203.607 89.9463C203.147 90.4579 202.916 91.0975 202.916 91.8649C202.916 92.6836 203.172 93.3487 203.658 93.8347C204.144 94.3208 204.835 94.551 205.679 94.551C206.319 94.551 207.009 94.372 207.803 94.0138Z" fill="#F7A814"/>
<path d="M216.475 92.0184H210.821C210.872 92.7859 211.128 93.3999 211.589 93.8603C212.075 94.3208 212.689 94.551 213.431 94.551C214.479 94.551 215.451 94.2185 216.321 93.5789V95.1394C215.835 95.472 215.349 95.7022 214.863 95.8301C214.377 95.9581 213.814 96.0348 213.175 96.0348C212.279 96.0348 211.563 95.8557 211.026 95.472C210.489 95.1139 210.028 94.6022 209.721 93.9882C209.389 93.3743 209.235 92.658 209.235 91.8394C209.235 90.6114 209.593 89.6137 210.284 88.8463C210.975 88.0788 211.87 87.6951 212.996 87.6951C214.07 87.6951 214.914 88.0788 215.554 88.8207C216.193 89.5626 216.5 90.5603 216.5 91.8138V92.0184H216.475ZM210.847 91.0463H214.889C214.838 90.4068 214.658 89.9207 214.326 89.5881C213.993 89.2556 213.533 89.0765 212.97 89.0765C212.407 89.0765 211.921 89.2556 211.563 89.5881C211.205 89.9207 210.949 90.4068 210.847 91.0463Z" fill="#F7A814"/>
<path d="M227.015 87.823C228.243 87.823 229.266 88.2067 230.059 88.9997C230.877 89.7928 231.287 90.7905 231.287 91.9673C231.287 93.1184 230.877 94.0906 230.059 94.858C229.24 95.6255 228.191 96.0092 226.963 96.0092C225.761 96.0092 224.738 95.6255 223.945 94.8324C223.126 94.065 222.717 93.0929 222.717 91.9161C222.717 90.7393 223.126 89.7672 223.945 88.9742C224.738 88.2067 225.787 87.823 227.015 87.823ZM226.938 89.2556C226.17 89.2556 225.556 89.5114 225.07 89.9974C224.584 90.5091 224.328 91.1486 224.328 91.9161C224.328 92.6835 224.584 93.3231 225.07 93.8092C225.582 94.2952 226.222 94.551 227.015 94.551C227.808 94.551 228.447 94.2952 228.933 93.8092C229.419 93.3231 229.675 92.6835 229.675 91.9161C229.675 91.1486 229.419 90.5091 228.908 90.023C228.37 89.5114 227.705 89.2556 226.938 89.2556Z" fill="#F7A814"/>
<path d="M233.231 87.8486V87.3625C233.231 86.0578 233.512 85.1113 234.05 84.4717C234.613 83.8322 235.252 83.5252 236.019 83.5252C236.352 83.5252 236.736 83.5764 237.196 83.6787V85.2392C236.94 85.1369 236.685 85.1113 236.454 85.1113C235.84 85.1113 235.406 85.2648 235.15 85.5973C234.919 85.9299 234.792 86.5183 234.792 87.3625V87.8486H236.224V89.2812H234.792V95.8813H233.205V89.2812H232.054V87.8486H233.231Z" fill="#F7A814"/>
<path d="M242.389 99.9999V87.8485H245.178C246.61 87.8485 247.71 88.2067 248.504 88.923C249.297 89.6392 249.706 90.6369 249.706 91.916C249.706 93.1184 249.322 94.1161 248.58 94.8835C247.838 95.651 246.892 96.0347 245.715 96.0347C245.203 96.0347 244.641 95.9324 244.001 95.7022V99.9999H242.389ZM245.152 89.3323H244.027V94.2696C244.513 94.5254 245.024 94.6533 245.562 94.6533C246.303 94.6533 246.917 94.3975 247.378 93.8858C247.864 93.3742 248.094 92.7091 248.094 91.8905C248.094 91.3532 247.992 90.8928 247.762 90.509C247.531 90.0997 247.224 89.8183 246.841 89.6392C246.457 89.4346 245.894 89.3323 245.152 89.3323Z" fill="#F7A814"/>
<path d="M253.159 87.8486V89.6905L253.236 89.5626C254.004 88.309 254.771 87.6951 255.539 87.6951C256.127 87.6951 256.766 88.0021 257.406 88.616L256.562 90.023C255.999 89.4858 255.487 89.23 255.027 89.23C254.515 89.23 254.08 89.4858 253.697 89.9719C253.313 90.4579 253.134 91.0463 253.134 91.7114V95.9069H251.522V87.8741H253.159V87.8486Z" fill="#F7A814"/>
<path d="M259.376 84.4717C259.632 84.4717 259.862 84.5741 260.041 84.7531C260.22 84.9322 260.322 85.1624 260.322 85.4183C260.322 85.6741 260.22 85.9043 260.041 86.0834C259.862 86.2625 259.632 86.3648 259.376 86.3648C259.12 86.3648 258.915 86.2625 258.736 86.0834C258.557 85.9043 258.455 85.6741 258.455 85.4183C258.455 85.1624 258.557 84.9578 258.736 84.7787C258.915 84.5485 259.12 84.4717 259.376 84.4717ZM258.583 87.8486H260.169V95.8813H258.583V87.8486Z" fill="#F7A814"/>
<path d="M267.408 87.8485H269.122L265.567 96.0347H265.029L261.397 87.8485H263.136L265.311 92.7858L267.408 87.8485Z" fill="#F7A814"/>
<path d="M275.365 91.0463V94.4743C275.365 94.7557 275.467 94.8836 275.646 94.8836C275.851 94.8836 276.132 94.7301 276.541 94.4487V95.4208C276.183 95.6511 275.902 95.8046 275.672 95.9069C275.441 95.9836 275.211 96.0348 274.981 96.0348C274.29 96.0348 273.906 95.779 273.779 95.2418C273.113 95.779 272.372 96.0348 271.63 96.0348C271.067 96.0348 270.606 95.8557 270.223 95.472C269.839 95.1139 269.66 94.6278 269.66 94.065C269.66 93.5534 269.839 93.0929 270.197 92.7091C270.555 92.2998 271.067 91.9928 271.758 91.7626L273.804 91.0719V90.637C273.804 89.6649 273.318 89.1788 272.346 89.1788C271.476 89.1788 270.632 89.6393 269.813 90.5347V88.7695C270.427 88.0532 271.323 87.6695 272.474 87.6695C273.344 87.6695 274.034 87.8997 274.572 88.3602C274.751 88.5137 274.904 88.6928 275.032 88.9486C275.16 89.1788 275.262 89.4346 275.288 89.6649C275.339 89.9207 275.365 90.3812 275.365 91.0463ZM273.804 94.2952V91.9161L272.73 92.3254C272.192 92.5301 271.809 92.7603 271.578 92.965C271.348 93.1952 271.246 93.451 271.246 93.7836C271.246 94.1162 271.348 94.3975 271.553 94.6022C271.758 94.8069 272.039 94.9092 272.371 94.9092C272.909 94.9092 273.369 94.7045 273.804 94.2952Z" fill="#F7A814"/>
<path d="M276.823 89.1276L279.816 86.1857V87.8485H282.348V89.2811H279.816V93.2208C279.816 94.1417 280.2 94.6022 280.967 94.6022C281.53 94.6022 282.144 94.4231 282.783 94.0394V95.5231C282.169 95.8557 281.504 96.0348 280.788 96.0348C280.072 96.0348 279.458 95.8301 278.972 95.3952C278.818 95.2673 278.69 95.1138 278.588 94.9603C278.486 94.8068 278.409 94.6022 278.332 94.3208C278.255 94.065 278.23 93.5789 278.23 92.837V89.2811H276.823V89.1276Z" fill="#F7A814"/>
<path d="M290.765 92.0184H285.111C285.163 92.7859 285.418 93.3999 285.879 93.8603C286.365 94.3208 286.979 94.551 287.721 94.551C288.77 94.551 289.742 94.2185 290.611 93.5789V95.1394C290.125 95.472 289.639 95.7022 289.153 95.8301C288.667 95.9581 288.104 96.0348 287.465 96.0348C286.57 96.0348 285.853 95.8557 285.316 95.472C284.779 95.1139 284.318 94.6022 284.011 93.9882C283.679 93.3743 283.525 92.658 283.525 91.8394C283.525 90.6114 283.883 89.6137 284.574 88.8463C285.265 88.0788 286.16 87.6951 287.286 87.6951C288.36 87.6951 289.204 88.0788 289.844 88.8207C290.484 89.5626 290.791 90.5603 290.791 91.8138V92.0184H290.765ZM285.162 91.0463H289.204C289.153 90.4068 288.974 89.9207 288.642 89.5881C288.309 89.2556 287.849 89.0765 287.286 89.0765C286.723 89.0765 286.237 89.2556 285.879 89.5881C285.495 89.9207 285.265 90.4068 285.162 91.0463Z" fill="#F7A814"/>
<path d="M299.181 87.8486V89.6905L299.258 89.5626C300.026 88.309 300.793 87.6951 301.561 87.6951C302.149 87.6951 302.788 88.0021 303.428 88.616L302.584 90.023C302.021 89.4858 301.509 89.23 301.049 89.23C300.537 89.23 300.102 89.4858 299.719 89.9719C299.335 90.4579 299.156 91.0463 299.156 91.7114V95.9069H297.544V87.8741H299.181V87.8486Z" fill="#F7A814"/>
<path d="M311.051 92.0184H305.398C305.449 92.7859 305.705 93.3999 306.165 93.8603C306.651 94.3208 307.265 94.551 308.007 94.551C309.056 94.551 310.028 94.2185 310.898 93.5789V95.1394C310.412 95.472 309.926 95.7022 309.44 95.8301C308.954 95.9581 308.391 96.0348 307.751 96.0348C306.856 96.0348 306.14 95.8557 305.603 95.472C305.065 95.1139 304.605 94.6022 304.298 93.9882C303.965 93.3743 303.812 92.658 303.812 91.8394C303.812 90.6114 304.17 89.6137 304.861 88.8463C305.551 88.0788 306.447 87.6951 307.572 87.6951C308.647 87.6951 309.491 88.0788 310.131 88.8207C310.77 89.5626 311.077 90.5603 311.077 91.8138V92.0184H311.051ZM305.449 91.0463H309.491C309.44 90.4068 309.261 89.9207 308.928 89.5881C308.596 89.2556 308.135 89.0765 307.572 89.0765C307.01 89.0765 306.523 89.2556 306.165 89.5881C305.782 89.9207 305.551 90.4068 305.449 91.0463Z" fill="#F7A814"/>
<path d="M314.377 87.8486V88.8718C315.093 88.0788 315.886 87.6951 316.807 87.6951C317.319 87.6951 317.78 87.823 318.214 88.0788C318.649 88.3346 318.982 88.6928 319.186 89.1532C319.417 89.6137 319.519 90.33 319.519 91.3021V95.9069H317.933V91.3277C317.933 90.5091 317.805 89.9207 317.549 89.5626C317.293 89.2044 316.884 89.0253 316.296 89.0253C315.554 89.0253 314.914 89.4091 314.377 90.1509V95.9069H312.74V87.8741H314.377V87.8486Z" fill="#F7A814"/>
<path d="M320.619 89.1276L323.612 86.1857V87.8485H326.145V89.2811H323.612V93.2208C323.612 94.1417 323.996 94.6022 324.763 94.6022C325.326 94.6022 325.94 94.4231 326.58 94.0394V95.5231C325.966 95.8557 325.301 96.0348 324.584 96.0348C323.868 96.0348 323.254 95.8301 322.768 95.3952C322.614 95.2673 322.486 95.1138 322.384 94.9603C322.282 94.8068 322.205 94.6022 322.128 94.3208C322.052 94.065 322.026 93.5789 322.026 92.837V89.2811H320.619V89.1276Z" fill="#F7A814"/>
<path d="M334.561 92.0184H328.908C328.959 92.7859 329.215 93.3999 329.675 93.8603C330.161 94.3208 330.775 94.551 331.517 94.551C332.566 94.551 333.538 94.2185 334.408 93.5789V95.1394C333.922 95.472 333.436 95.7022 332.95 95.8301C332.464 95.9581 331.901 96.0348 331.261 96.0348C330.366 96.0348 329.649 95.8557 329.112 95.472C328.575 95.1139 328.115 94.6022 327.808 93.9882C327.475 93.3743 327.322 92.658 327.322 91.8394C327.322 90.6114 327.68 89.6137 328.37 88.8463C329.061 88.0788 329.956 87.6951 331.082 87.6951C332.157 87.6951 333.001 88.0788 333.64 88.8207C334.28 89.5626 334.587 90.5603 334.587 91.8138V92.0184H334.561ZM328.933 91.0463H332.975C332.924 90.4068 332.745 89.9207 332.412 89.5881C332.08 89.2556 331.619 89.0765 331.056 89.0765C330.494 89.0765 330.008 89.2556 329.649 89.5881C329.291 89.9207 329.036 90.4068 328.933 91.0463Z" fill="#F7A814"/>
<path d="M337.989 87.8486V89.6905L338.066 89.5626C338.833 88.309 339.601 87.6951 340.368 87.6951C340.957 87.6951 341.596 88.0021 342.236 88.616L341.392 90.023C340.829 89.4858 340.317 89.23 339.857 89.23C339.345 89.23 338.91 89.4858 338.527 89.9719C338.143 90.4579 337.964 91.0463 337.964 91.7114V95.9069H336.352V87.8741H337.989V87.8486Z" fill="#F7A814"/>
<path d="M342.978 95.3185V93.6045C343.438 93.9115 343.873 94.1673 344.359 94.372C344.82 94.5766 345.229 94.6534 345.536 94.6534C345.869 94.6534 346.15 94.5766 346.38 94.3976C346.61 94.2441 346.738 94.0394 346.738 93.8092C346.738 93.5789 346.662 93.3743 346.508 93.2208C346.355 93.0673 346.022 92.837 345.51 92.5556C344.487 91.9928 343.822 91.5068 343.489 91.0975C343.182 90.6882 343.003 90.2533 343.003 89.7672C343.003 89.1532 343.234 88.6416 343.72 88.2579C344.206 87.8741 344.82 87.6695 345.587 87.6695C346.38 87.6695 347.173 87.8997 348.017 88.3346V89.9207C347.071 89.3579 346.303 89.0765 345.69 89.0765C345.383 89.0765 345.127 89.1532 344.948 89.2812C344.769 89.4091 344.666 89.5881 344.666 89.7928C344.666 89.9719 344.743 90.1509 344.922 90.33C345.101 90.5091 345.408 90.7137 345.817 90.944L346.38 91.2765C347.71 92.044 348.401 92.8626 348.401 93.7836C348.401 94.4487 348.145 94.9859 347.634 95.3952C347.122 95.8301 346.457 96.0348 345.638 96.0348C345.152 96.0348 344.743 95.9836 344.359 95.8813C344.001 95.779 343.541 95.5743 342.978 95.3185Z" fill="#F7A814"/>
</svg>
