<svg width="316" height="100" viewBox="0 0 316 100" fill="none" xmlns="http://www.w3.org/2000/svg">
<path d="M37.5311 7.00082L0 30.6959V71.9138H75.0207V30.6959L37.5311 7.00082Z" fill="#E04839"/>
<path d="M37.5311 29.7432L16.9843 38.8567V1.03561H58.0365V38.8567L37.5311 29.7432Z" fill="#F2F2F2"/>
<path d="M57.0008 2.07125V37.2411L38.3595 28.9561L37.531 28.5833L36.7025 28.9561L18.0613 37.2411V2.07125H57.0008ZM59.0721 0H15.9486V40.4308L37.4896 30.8616L59.0306 40.4308V0H59.0721Z" fill="#1A1A1A"/>
<path d="M37.531 31.1102L59.0721 40.6379V38.111L37.531 28.5418L15.9486 38.111V40.6379L37.531 31.1102Z" fill="#1A1A1A"/>
<path d="M43.6206 9.56918C43.7034 9.942 43.5377 10.3148 43.1649 10.6048C42.8335 10.8534 42.5435 11.1019 42.2535 11.3505L39.1052 15.5758L42.5849 20.6711C42.7506 20.8782 42.9577 21.0439 43.1234 21.251C43.372 21.4996 43.4963 21.7481 43.4963 21.9553C43.4963 22.0795 43.4548 22.2038 43.3306 22.3695C43.2063 22.5352 42.7092 22.8252 41.8807 23.2394C41.135 23.6537 40.6379 23.8608 40.3894 23.9022C39.8923 23.9022 39.6023 23.6951 39.478 23.2394C39.2709 22.4938 38.401 20.9611 36.8683 18.6413L34.6727 22.2038C34.5899 22.5352 34.507 22.8252 34.4656 23.1152C34.3413 23.6123 34.0928 23.8608 33.8028 23.9022C33.5128 23.9437 32.85 23.8194 31.8973 23.488C30.9031 23.1566 30.3231 22.8252 30.116 22.5352C30.0331 22.4524 30.0331 22.3281 30.0331 22.2452C30.0331 22.0381 30.1988 21.7896 30.4888 21.4582C30.9031 21.0439 31.1102 20.7954 31.1516 20.7539L34.5485 15.6172L31.483 10.8948C31.2345 10.7291 31.0273 10.4805 30.7788 10.1077C30.7788 9.90058 31.193 9.52775 32.0215 8.98923C32.85 8.4507 33.4714 8.16073 33.8028 8.07788C34.1342 8.03645 34.3413 8.1193 34.4242 8.285C34.5485 8.49213 34.6313 8.69925 34.7142 8.90638L36.8683 12.6346L39.2709 9.07208C39.3538 8.82353 39.4366 8.6164 39.5195 8.40928C39.6023 8.24358 39.8923 8.16073 40.3894 8.1193C40.6379 8.1193 41.2179 8.285 42.1292 8.65783C43.082 9.07208 43.5377 9.36205 43.6206 9.56918Z" fill="#1A1A1A"/>
<path d="M37.5311 48.2187L0 71.9138V100H29.4118V78.0447C29.4118 77.1334 30.1574 76.3877 31.0688 76.3877H43.952C44.8633 76.3877 45.609 77.1334 45.609 78.0447V100H75.0207V71.9138L37.5311 48.2187Z" fill="#F4AC37"/>
<path d="M98.0944 60.4391V30.6959H105.551C108.575 30.6959 110.936 31.4416 112.717 32.9329C114.499 34.4242 115.369 36.454 115.369 38.9809C115.369 40.7208 114.954 42.2121 114.084 43.4548C113.215 44.6976 111.972 45.6504 110.356 46.2717C111.309 46.8931 112.22 47.763 113.132 48.8401C114.043 49.9171 115.327 51.7813 116.943 54.4739C117.978 56.1723 118.807 57.4151 119.428 58.285L121.002 60.3977H115.949L114.664 58.4507C114.623 58.3678 114.54 58.2436 114.416 58.0779L113.587 56.918L112.262 54.7639L110.853 52.4441C109.983 51.2427 109.155 50.2485 108.451 49.5443C107.705 48.8401 107.042 48.3016 106.462 47.9702C105.882 47.6388 104.888 47.4731 103.48 47.4731H102.32V60.3977H98.0944V60.4391ZM103.604 34.2999H102.32V43.7034H103.935C106.089 43.7034 107.581 43.5377 108.368 43.1649C109.155 42.792 109.776 42.2535 110.232 41.5079C110.688 40.7622 110.895 39.9337 110.895 38.9809C110.895 38.0282 110.646 37.1997 110.149 36.454C109.652 35.7084 108.948 35.1698 108.036 34.8384C107.208 34.4656 105.717 34.2999 103.604 34.2999Z" fill="#1A1A1A"/>
<path d="M123.405 30.6959H140.265V34.4656H127.672V43.5377H139.851V47.3488H127.672V56.5866H140.679V60.3562H123.405V30.6959Z" fill="#1A1A1A"/>
<path d="M167.978 30.6959H172.038V60.4391H168.393L148.509 37.5311V60.4391H144.49V30.6959H147.929L167.978 53.8111V30.6959Z" fill="#1A1A1A"/>
<path d="M174.979 30.6545H199.834V34.4242H189.478V60.3977H185.17V34.4242H174.979V30.6545Z" fill="#1A1A1A"/>
<path d="M202.941 30.6959H219.801V34.4656H207.208V43.5377H219.387V47.3488H207.208V56.5866H220.215V60.3562H202.941V30.6959Z" fill="#1A1A1A"/>
<path d="M224.026 60.4391V30.6959H231.483C234.507 30.6959 236.868 31.4416 238.65 32.9329C240.431 34.4242 241.301 36.454 241.301 38.9809C241.301 40.7208 240.886 42.2121 240.017 43.4548C239.147 44.6976 237.904 45.6504 236.288 46.2717C237.241 46.8931 238.152 47.763 239.064 48.8401C239.975 49.9171 241.259 51.7813 242.875 54.4739C243.91 56.1723 244.739 57.4151 245.36 58.285L246.935 60.3977H241.881L240.596 58.4507C240.555 58.3678 240.472 58.2436 240.348 58.0779L239.519 56.918L238.194 54.7639L236.785 52.4441C235.915 51.2427 235.087 50.2485 234.383 49.5443C233.637 48.8401 232.974 48.3016 232.394 47.9702C231.814 47.6388 230.82 47.4731 229.412 47.4731H228.252V60.3977H224.026V60.4391ZM229.536 34.2999H228.252V43.7034H229.867C232.022 43.7034 233.513 43.5377 234.3 43.1649C235.087 42.792 235.708 42.2535 236.164 41.5079C236.62 40.7622 236.827 39.9337 236.827 38.9809C236.827 38.0282 236.578 37.1997 236.081 36.454C235.584 35.7084 234.88 35.1698 233.968 34.8384C233.14 34.4656 231.649 34.2999 229.536 34.2999Z" fill="#1A1A1A"/>
<path d="M121.582 69.884H125.559V99.6272H121.292V76.4706L112.138 87.9453H111.35L102.113 76.4706V99.6272H97.8459V69.884H101.864L111.765 82.1044L121.582 69.884Z" fill="#1A1A1A"/>
<path d="M140.597 69.7183H143.579L156.918 99.6272H152.568L148.592 90.8036H135.916L132.187 99.6272H127.796L140.597 69.7183ZM146.852 86.9925L142.046 76.222L137.614 86.9925H146.852Z" fill="#1A1A1A"/>
<path d="M182.933 69.884H186.993V99.6272H183.347L163.463 76.7191V99.6272H159.445V69.884H162.883L182.933 92.9992V69.884Z" fill="#1A1A1A"/>
<path d="M192.543 69.884H196.769V99.6272H192.502V69.884H192.543Z" fill="#1A1A1A"/>
<path d="M202.568 69.884H218.434V73.6537H206.835V81.9387H218.434V85.7084H206.835V99.5857H202.568V69.884Z" fill="#1A1A1A"/>
<path d="M222.079 69.884H238.939V73.6537H226.346V82.7258H238.525V86.5369H226.346V95.7746H239.354V99.5443H222.079V69.884Z" fill="#1A1A1A"/>
<path d="M250.373 87.1582L247.142 85.2113C245.112 83.9685 243.662 82.7672 242.792 81.5658C241.922 80.3645 241.508 78.9975 241.508 77.4233C241.508 75.0621 242.336 73.198 243.952 71.7067C245.567 70.2568 247.68 69.5112 250.29 69.5112C252.775 69.5112 255.054 70.2154 257.125 71.5824V76.4291C254.971 74.3579 252.693 73.3223 250.207 73.3223C248.799 73.3223 247.68 73.6537 246.769 74.275C245.857 74.9378 245.443 75.7249 245.443 76.7605C245.443 77.6719 245.775 78.5004 246.437 79.2461C247.1 80.0331 248.136 80.8202 249.627 81.6901L252.858 83.5957C256.504 85.7498 258.285 88.5253 258.285 91.8807C258.285 94.2833 257.498 96.1889 255.882 97.6802C254.267 99.1715 252.195 99.9171 249.669 99.9171C246.727 99.9171 244.076 99.0058 241.632 97.2245V91.7978C243.91 94.6976 246.603 96.1475 249.627 96.1475C250.953 96.1475 252.071 95.7746 252.941 95.029C253.811 94.2833 254.267 93.372 254.267 92.2535C254.308 90.4722 252.983 88.7738 250.373 87.1582Z" fill="#1A1A1A"/>
<path d="M259.569 69.8426H284.424V73.6123H274.068V99.5858H269.801V73.6123H259.611V69.8426H259.569Z" fill="#1A1A1A"/>
<path d="M299.337 69.4283C303.935 69.4283 307.747 70.8782 310.812 73.7779C313.877 76.6777 315.41 80.3231 315.41 84.7141C315.41 89.1052 313.877 92.7092 310.771 95.6089C307.705 98.4673 303.811 99.9171 299.089 99.9171C294.615 99.9171 290.887 98.4673 287.904 95.6089C284.921 92.7506 283.43 89.1466 283.43 84.797C283.43 80.3645 284.921 76.6777 287.945 73.7779C290.928 70.9196 294.739 69.4283 299.337 69.4283ZM299.503 73.488C296.106 73.488 293.289 74.565 291.094 76.6777C288.898 78.7904 287.821 81.5244 287.821 84.8384C287.821 88.0281 288.94 90.7208 291.135 92.8335C293.331 94.9461 296.065 96.0232 299.379 96.0232C302.693 96.0232 305.468 94.9461 307.664 92.7506C309.901 90.5965 310.978 87.8624 310.978 84.6313C310.978 81.483 309.859 78.8318 307.664 76.6777C305.468 74.565 302.734 73.488 299.503 73.488Z" fill="#1A1A1A"/>
</svg>
