<svg width="45" height="45" viewBox="0 0 45 45" fill="none" xmlns="http://www.w3.org/2000/svg">
<path fill-rule="evenodd" clip-rule="evenodd" d="M39.5021 0C42.5365 0 45 2.46357 45 5.49791V39.5021C45 42.5364 42.5364 45 39.5021 45H30.1446V28.0446H35.9981L37.1118 20.783H30.1446V16.0705C30.1446 14.0839 31.1178 12.1475 34.2385 12.1475H37.4062V5.96522C37.4062 5.96522 34.5313 5.47462 31.7828 5.47462C26.0446 5.47462 22.2942 8.95236 22.2942 15.2484V20.783H15.9157V28.0446H22.2942V45H5.49791C2.46357 45 0 42.5364 0 39.5021V5.49791C0 2.46357 2.46349 0 5.49791 0H39.5021V0Z" fill="#353535"/>
</svg>
